<?xml version="1.0" encoding="iso-8859-1"?>
<!-- Generator: Adobe Illustrator 29.2.1, SVG Export Plug-In . SVG Version: 9.03 Build 55982)  -->
<svg version="1.1" id="Capa_1" xmlns="http://www.w3.org/2000/svg" xmlns:xlink="http://www.w3.org/1999/xlink" x="0px" y="0px"
	 viewBox="0 0 512.006 512.006" style="enable-background:new 0 0 512.006 512.006;" xml:space="preserve">
<g>
	<g>
		<path style="fill:#33CCCC;" d="M503.849,220.376l-38.226-10.243c-5.865-1.574-11.899,1.91-13.472,7.778
			c-1.572,5.868,1.91,11.9,7.778,13.472l38.226,10.243c0.953,0.256,1.911,0.378,2.854,0.378c4.856,0,9.302-3.242,10.618-8.156
			C513.199,227.98,509.717,221.948,503.849,220.376z"/>
		<path style="fill:#33CCCC;" d="M488.558,104.223c5.261-3.038,7.063-9.765,4.026-15.026c-3.037-5.259-9.763-7.065-15.026-4.026
			l-34.272,19.787c-5.261,3.038-7.063,9.765-4.026,15.026c2.037,3.529,5.734,5.502,9.537,5.502c1.865,0,3.757-0.476,5.489-1.476
			L488.558,104.223z"/>
		<path style="fill:#33CCCC;" d="M360.897,59.854c0.953,0.256,1.911,0.378,2.854,0.378c4.856,0,9.302-3.242,10.618-8.156
			l10.242-38.226c1.572-5.868-1.91-11.899-7.778-13.472c-5.863-1.575-11.899,1.91-13.472,7.778l-10.242,38.226
			C351.547,52.25,355.029,58.282,360.897,59.854z"/>
		<path style="fill:#33CCCC;" d="M257.479,74.222c1.865,0,3.757-0.476,5.489-1.476c5.262-3.038,7.063-9.765,4.026-15.026
			l-19.787-34.272c-3.038-5.26-9.762-7.065-15.026-4.026c-5.262,3.038-7.063,9.765-4.026,15.026l19.787,34.272
			C249.98,72.25,253.677,74.222,257.479,74.222z"/>
		<path style="fill:#33CCCC;" d="M327.496,77.89c-38.452,0-74.072,20.838-92.959,54.382l19.17,10.794
			c14.995-26.632,43.27-43.176,73.789-43.176c46.659,0,84.619,37.96,84.619,84.62c0,21.343-7.974,41.728-22.453,57.4l16.16,14.929
			c18.245-19.749,28.293-45.436,28.293-72.329C434.115,125.719,386.286,77.89,327.496,77.89z"/>
	</g>
	<g>
		<path d="M374.848,229.686c-0.043-2.705-0.234-5.423-0.615-8.145c-2.421-17.319-11.442-32.659-25.401-43.193
			c-13.958-10.533-31.182-15-48.504-12.581c-5.719,0.8-11.214,2.333-16.399,4.512c-18.202-39.181-57.534-64.711-101.575-64.711
			c-29.701,0-57.685,11.505-78.795,32.396c-18.891,18.695-30.32,42.97-32.741,69.141c-40.497,9.212-70.816,45.506-70.816,88.752
			c0,50.186,40.828,91.014,91.014,91.014h271.884c43.588,0,79.049-35.461,79.049-79.049
			C441.948,268.339,412.772,235.472,374.848,229.686z M362.899,364.871H91.016c-38.055,0-69.014-30.959-69.014-69.014
			s30.959-69.014,69.014-69.014c6.075,0,11-4.925,11-11c0-5.322-3.78-9.76-8.801-10.779c2.699-19.457,11.63-37.42,25.82-51.462
			c16.963-16.788,39.451-26.033,63.319-26.033c36.409,0,68.814,21.707,82.848,54.732c-2.919,2.682-5.627,5.637-8.066,8.869
			c-3.659,4.849-2.695,11.747,2.154,15.406c4.849,3.66,11.748,2.695,15.406-2.154c6.994-9.268,17.18-15.258,28.679-16.866
			c11.498-1.609,22.937,1.359,32.205,8.353c9.269,6.994,15.258,17.179,16.865,28.679c1.608,11.5-1.358,22.937-8.353,32.205
			c-3.659,4.849-2.695,11.747,2.154,15.406c1.983,1.497,4.31,2.22,6.617,2.22c3.333,0,6.627-1.509,8.789-4.375
			c4.322-5.727,7.604-12.01,9.827-18.617c27.39,4.157,48.468,27.886,48.468,56.394C419.948,339.278,394.356,364.871,362.899,364.871
			z"/>
		<path d="M101.818,414.574c-5.261-3.036-11.988-1.234-15.026,4.026l-15,25.981c-3.037,5.261-1.234,11.989,4.026,15.026
			c1.732,1,3.623,1.476,5.489,1.476c3.802,0,7.5-1.973,9.537-5.502l15-25.981C108.882,424.339,107.079,417.611,101.818,414.574z"/>
		<path d="M239.958,414.574c-5.261-3.036-11.989-1.234-15.026,4.026l-15,25.981c-3.037,5.261-1.234,11.989,4.026,15.026
			c1.732,1,3.623,1.476,5.489,1.476c3.802,0,7.5-1.973,9.537-5.502l15-25.981C247.021,424.339,245.219,417.611,239.958,414.574z"/>
		<path d="M378.097,414.574c-5.261-3.036-11.989-1.234-15.026,4.026l-15,25.981c-3.037,5.261-1.234,11.989,4.026,15.026
			c1.732,1,3.623,1.476,5.489,1.476c3.802,0,7.5-1.973,9.537-5.502l15-25.981C385.16,424.339,383.357,417.611,378.097,414.574z"/>
		<path d="M153.162,465.498c-5.261-3.037-11.989-1.234-15.026,4.026l-15,25.98c-3.037,5.261-1.235,11.989,4.026,15.026
			c1.732,1,3.623,1.476,5.489,1.476c3.802,0,7.5-1.973,9.537-5.502l15-25.98C160.226,475.263,158.424,468.535,153.162,465.498z"/>
		<path d="M291.302,465.498c-5.261-3.037-11.989-1.234-15.026,4.026l-15,25.98c-3.037,5.261-1.235,11.989,4.026,15.026
			c1.732,1,3.623,1.476,5.489,1.476c3.802,0,7.5-1.973,9.537-5.502l15-25.98C298.365,475.263,296.563,468.535,291.302,465.498z"/>
	</g>
</g>
<g>
</g>
<g>
</g>
<g>
</g>
<g>
</g>
<g>
</g>
<g>
</g>
<g>
</g>
<g>
</g>
<g>
</g>
<g>
</g>
<g>
</g>
<g>
</g>
<g>
</g>
<g>
</g>
<g>
</g>
</svg>
